<!-- Generator: Adobe Illustrator 21.1.0, SVG Export Plug-In  -->
<svg version="1.1"
	 xmlns="http://www.w3.org/2000/svg" xmlns:xlink="http://www.w3.org/1999/xlink" xmlns:a="http://ns.adobe.com/AdobeSVGViewerExtensions/3.0/"
	 x="0px" y="0px" width="43.4px" height="37.8px" viewBox="0 0 43.4 37.8" style="enable-background:new 0 0 43.4 37.8;"
	 xml:space="preserve">
<defs>
</defs>
<g>
	<path d="M8,18.2c0,4.3,2.6,7.9,8.9,9.2C18,34,15.1,37.8,9.7,37.8c-4.6,0-9.7-4-9.7-13.1C0,14,6.5,4.9,15,0c0,0,2,2.6,2.3,3
		C11.4,7.3,8,13.2,8,18.2z M34.2,18.2c0,4.3,2.6,7.9,8.9,9.2c1.1,6.5-1.8,10.3-7.2,10.3c-4.6,0-9.7-4-9.7-13.1
		c0-10.7,6.5-19.8,15-24.7c0,0,2,2.6,2.3,3C37.6,7.3,34.2,13.2,34.2,18.2z"/>
</g>
</svg>
