<!-- Generator: Adobe Illustrator 21.1.0, SVG Export Plug-In  -->
<svg version="1.1"
	 xmlns="http://www.w3.org/2000/svg" xmlns:xlink="http://www.w3.org/1999/xlink" xmlns:a="http://ns.adobe.com/AdobeSVGViewerExtensions/3.0/"
	 x="0px" y="0px" width="47.8px" height="41.7px" viewBox="0 0 47.8 41.7" style="enable-background:new 0 0 47.8 41.7;"
	 xml:space="preserve">
<style type="text/css">
	.st0{fill:none;stroke:#000000;}
</style>
<defs>
</defs>
<g>
	<path class="st0" d="M9.1,20.2c0,4.6,2.8,8.5,9.5,9.9c1.2,7-1.9,11.1-7.7,11.1C6,41.2,0.5,37,0.5,27.2c0-11.5,7-21.3,16.1-26.5
		c0,0,2.2,2.8,2.4,3.2C12.7,8.5,9.1,14.8,9.1,20.2z M37.2,20.2c0,4.6,2.8,8.5,9.5,9.9c1.2,7-1.9,11.1-7.7,11.1
		c-4.9,0-10.4-4.3-10.4-14c0-11.5,7-21.3,16.1-26.5c0,0,2.2,2.8,2.4,3.2C40.8,8.5,37.2,14.8,37.2,20.2z"/>
</g>
</svg>
